<svg width="512" height="512" viewBox="0 0 512 512" fill="none" xmlns="http://www.w3.org/2000/svg">
  <rect width="512" height="512" rx="128" fill="#E2E0F4"/>
  <path d="M256 128C300.183 128 336 163.817 336 208V304C336 348.183 300.183 384 256 384C211.817 384 176 348.183 176 304V208C176 163.817 211.817 128 256 128Z" fill="#111214"/>
  <circle cx="232" cy="208" r="16" fill="#FCFCFD"/>
  <circle cx="280" cy="208" r="16" fill="#FCFCFD"/>
  <path d="M224 256C224 264.837 231.163 272 240 272H272C280.837 272 288 264.837 288 256C288 247.163 280.837 240 272 240H240C231.163 240 224 247.163 224 256Z" fill="#FCFCFD"/>
</svg>